<svg viewBox="2200 2100 4000 4000" width="3000px" height="3000px" xmlns="http://www.w3.org/2000/svg">
    <style>
        <!--ARTIC blue: #005C68 -->
        <!--ARTIC yellow: #F6EECA -->
        <!--ARTIC red: #F1605D -->
        .logo-compass-line { fill: none; stroke: #F6EECA; stroke-width:0.5 }
        .logo-globe-line { fill: none; stroke: #F6EECA; stroke-width:0.5 }
        .logo-epi-line { fill: none; stroke: #F6EECA; stroke-width:5 }
        .logo-epi-circle { fill: #F1605D; stroke: #F6EECA; stroke-width:5 }
        .logo-central-circle { fill: #F1605D; stroke: #F6EECA; stroke-width:5 }
        .logo-virus { fill: #F6EECA; stroke: none }
    </style>
    <g>
        <g >
            <animateTransform
                    attributeName="transform"
                    type="rotate"
                    from="0 2500 2500"
                    to="360 2500 2500"
                    dur="480s"
                    repeatCount="indefinite" />
            <line class="logo-compass-line" x1="0" y1="2500" x2="2400" y2="2500"/>
            <line class="logo-compass-line" x1="2600" y1="2500" x2="5000" y2="2500"/>
            <line class="logo-compass-line" x1="2500" y1="0" x2="2500" y2="2400"/>
            <line class="logo-compass-line" x1="2500" y1="2600" x2="2500" y2="5000"/>
        </g>
        <g>
            <animateTransform
                    attributeName="transform"
                    type="rotate"
                    from="60 2500 2500"
                    to="420 2500 2500"
                    dur="360s"
                    repeatCount="indefinite" />
            <line class="logo-compass-line" x1="0" y1="2500" x2="2400" y2="2500"/>
            <line class="logo-compass-line" x1="2600" y1="2500" x2="5000" y2="2500"/>
            <line class="logo-compass-line" x1="2500" y1="0" x2="2500" y2="2400"/>
            <line class="logo-compass-line" x1="2500" y1="2600" x2="2500" y2="5000"/>
        </g>
        <g>
            <animateTransform
                    attributeName="transform"
                    type="rotate"
                    from="390 2500 2500"
                    to="30 2500 2500"
                    dur="360s"
                    repeatCount="indefinite" />
            <line class="logo-compass-line" x1="0" y1="2500" x2="2400" y2="2500"/>
            <line class="logo-compass-line" x1="2600" y1="2500" x2="5000" y2="2500"/>
            <line class="logo-compass-line" x1="2500" y1="0" x2="2500" y2="2400"/>
            <line class="logo-compass-line" x1="2500" y1="2600" x2="2500" y2="5000"/>
        </g>
        <g>
            <circle class="logo-globe-line"  cx="2500" cy="2500" r="193.4"/>
            <circle class="logo-globe-line"  cx="2500" cy="2500" r="162.1"/>
            <circle class="logo-globe-line"  cx="2500" cy="2500" r="180.1"/>
            <circle class="logo-globe-line"  cx="2500" cy="2500" r="204.1"/>
            <circle class="logo-globe-line"  cx="2500" cy="2500" r="211.4"/>
            <circle class="logo-globe-line"  cx="2500" cy="2500" r="216.9"/>
            <circle class="logo-globe-line"  cx="2500" cy="2500" r="134.8"/>
        </g>
    </g>
    <g>
        <line class="logo-epi-line" x1="2350.5" y1="2424.1" x2="2332.9" y2="2432.7"/>
        <line class="logo-epi-line" x1="2368.4" y1="2403" x2="2374.6" y2="2378.2"/>
        <line class="logo-epi-line" x1="2514.4" y1="2325.3" x2="2546.9" y2="2313.5"/>
        <line class="logo-epi-line" x1="2457.3" y1="2313.8" x2="2485.8" y2="2324.9"/>
        <line class="logo-epi-line" x1="2514.2" y1="2659.6" x2="2560.6" y2="2682"/>
        <line class="logo-epi-line" x1="2469.7" y1="2664.7" x2="2485.6" y2="2658.5"/>
        <line class="logo-epi-line" x1="2500.1" y1="2399.2" x2="2500.1" y2="2346.4"/>
        <line class="logo-epi-line" x1="2651.4" y1="2408.8" x2="2586.6" y2="2448.4"/>
        <line class="logo-epi-line" x1="2619.8" y1="2571.7" x2="2586.4" y2="2552"/>
        <line class="logo-epi-line" x1="2500.1" y1="2637.8" x2="2500.1" y2="2600.8"/>
        <line class="logo-epi-line" x1="2413.6" y1="2551.9" x2="2332.9" y2="2599.1"/>
        <line class="logo-epi-line" x1="2413.6" y1="2448.1" x2="2377.9" y2="2426.1"/>
        <line class="logo-epi-line" x1="2646.5" y1="2587.3" x2="2660.2" y2="2595.4"/>
        <g>
            <circle class="logo-epi-circle" cx="2633.1" cy="2579.5" r="16"/>
            <circle class="logo-epi-circle" cx="2500.2" cy="2331" r="15.5"/>
            <circle class="logo-epi-circle" cx="2364.8" cy="2418.1" r="15.2"/>
            <circle class="logo-epi-circle" cx="2664.6" cy="2400.8" r="15.5"/>
            <circle class="logo-epi-circle" cx="2319.6" cy="2606.9" r="15.6"/>
            <circle class="logo-epi-circle" cx="2322.9" cy="2437.5" r="11.1"/>
            <circle class="logo-epi-circle" cx="2377.3" cy="2367.4" r="11.1"/>
            <circle class="logo-epi-circle" cx="2446.9" cy="2309.7" r="11.2"/>
            <circle class="logo-epi-circle" cx="2557.4" cy="2309.7" r="11.2"/>
            <circle class="logo-epi-circle" cx="2459.3" cy="2668.7" r="11.1"/>
            <circle class="logo-epi-circle" cx="2669.8" cy="2601" r="11.1"/>
            <circle class="logo-epi-circle" cx="2499.9" cy="2653.2" r="15.5"/>
            <circle class="logo-epi-circle" cx="2570.7" cy="2686.8" r="11.1"/>
        </g>
        <circle class="logo-central-circle" cx="2500.2" cy="2500" r="100"/>
    </g>
    <g>
        <polygon class="logo-virus" points="2501.2,2564.6 2501.3,2588.9 2571.8,2549.8 	"/>
        <polygon class="logo-virus" points="2428.7,2549.3 2499.3,2588.8 2499.2,2564.6 	"/>
        <polygon class="logo-virus" points="2554.4,2470.9 2502.2,2562.4 2576.8,2546.7 	"/>
        <polygon class="logo-virus" points="2423.6,2546.1 2498.2,2562.3 2445.4,2470.9 	"/>
        <polygon class="logo-virus" points="2446.9,2469.3 2500.2,2561.8 2553,2469.3 	"/>
        <polygon class="logo-virus" points="2555.9,2468.8 2577.1,2540.5 2577.1,2456.3 	"/>
        <polygon class="logo-virus" points="2423.3,2539.9 2444,2468.8 2423.3,2456.6 	"/>
        <polygon class="logo-virus" points="2447.4,2467.3 2552.4,2467.3 2500.3,2411.2 	"/>
        <polygon class="logo-virus" points="2554.8,2467.3 2555.3,2466.8 2576.1,2454.5 2505.6,2413.9 2554.5,2466.6 	"/>
        <polygon class="logo-virus" points="2424.3,2454.8 2444.5,2466.8 2445,2466.8 2445.3,2466.7 2494.9,2414 	"/>
    </g>
</svg>
